# xmcd CD Database Entry
#
# Track frame offsets:
# 183
# 22248
# 45638
# 64818
# 83983
# 100818
# 127320
# 161568
# 186670
# 216458
#
# Disc length: 3150 seconds
#
# Revision: 3
# Processed by: cddbd v1.4PL0 Copyright (c) Steve Scherf et al.
# Submitted via: tcd 2.0b
#
DISCID=9c0c4c0a
DTITLE=Duke Ellington - JazzTime
DYEAR=1900
DGENRE=
TTITLE0=Bula
TTITLE1=Silk Lace
TTITLE2=Asphalt Jungle
TTITLE3=Star Crossed Lovers
TTITLE4=Getting Sentimental Over YouTrack 5
TTITLE5=E.s.p
TTITLE6=Paris Blues
TTITLE7=The Shepherd (First concept)
TTITLE8=The Shepherd (Second concept)Track 9
TTITLE9=Kinda Dukish
EXTD=
EXTT0=
EXTT1=
EXTT2=
EXTT3=
EXTT4=
EXTT5=
EXTT6=
EXTT7=
EXTT8=
EXTT9=
PLAYORDER=
